<svg class="svg-icon" style="width: 1em; height: 1em;vertical-align: middle;fill: red;overflow: hidden;" viewBox="0 0 1024 1024" version="1.1" xmlns="http://www.w3.org/2000/svg"><path d="M266.2 256l47.2 581.4c0 32.4 26.2 58.6 58.6 58.6h282c32.4 0 58.6-26.2 58.6-58.6L759.2 256H266.2z m123.2 530L376 320h37l13.8 466h-37.4z m140.6 0h-36V320h36v466z m104.6 0h-37.2l13.6-466H648l-13.4 466zM728 184h-72l-52.6-46c-7.4-6.4-16.8-10-26.4-10h-129.6c-9.8 0-19.4 3.6-26.8 10L368 184h-72c-35.2 0-60 16.8-60 52h552c0-35.2-24.8-52-60-52z" fill="" /></svg>